<svg width="9" height="18" viewBox="0 0 9 18" xmlns="http://www.w3.org/2000/svg"><title>facebook</title><desc>Created with Sketch.</desc><path d="M2.248 9.024c.045.057.02.445.02.517v8.2H5.8c.023-2.16 0-4.37 0-6.54 0-.03-.005-2.1.004-2.143.007-.03.008-.025.016-.037.003 0 2.245.017 2.323-.002l.04-.012.31-2.99h-2.68c-.01-.444.002-.897.002-1.34 0-.405-.01-.905.23-1.127L8.48 3.3l-.004-3C8.016.272 7.47.3 7 .3c-.49 0-.985-.01-1.466.022-.917.06-1.657.336-2.192.795-.776 1.25-1.076.176-1.082 4.898H.485L.488 9.02l1.76.005" fill="#fff" fill-rule="evenodd"/></svg>