<svg width="15" height="15" viewBox="0 0 15 15" xmlns="http://www.w3.org/2000/svg"><title>Shape</title><desc>Created with Sketch.</desc><path d="M14.47 11.098c-.04-.12-.29-.297-.756-.53-.125-.074-.304-.174-.536-.3-.232-.127-.443-.244-.632-.35-.19-.107-.366-.21-.532-.31-.026-.02-.11-.08-.248-.176-.14-.096-.257-.168-.353-.215-.096-.047-.19-.07-.284-.07-.134 0-.3.095-.5.285-.2.19-.38.397-.546.62-.165.224-.34.43-.526.62-.187.19-.34.286-.46.286-.06 0-.133-.017-.223-.05s-.157-.062-.204-.085c-.045-.023-.124-.07-.237-.14-.113-.07-.176-.108-.19-.115C7.34 10.06 6.56 9.48 5.91 8.828c-.65-.655-1.227-1.44-1.73-2.352-.007-.014-.046-.077-.115-.19-.07-.114-.116-.194-.14-.24-.023-.047-.05-.116-.084-.206-.03-.09-.05-.165-.05-.225 0-.12.097-.273.286-.46.19-.187.394-.364.616-.53.223-.167.43-.35.618-.55.19-.2.283-.367.283-.5 0-.094-.022-.19-.07-.286-.045-.1-.116-.217-.212-.357-.096-.14-.153-.224-.173-.25-.1-.167-.202-.345-.31-.536-.105-.19-.22-.402-.347-.635-.126-.233-.225-.413-.298-.54-.233-.467-.41-.72-.528-.76-.046-.02-.116-.03-.21-.03-.178 0-.41.033-.7.1-.288.066-.515.136-.68.21-.332.14-.684.546-1.055 1.22C.67 2.34.5 2.96.5 3.572c0 .18.012.357.035.527.023.17.064.36.124.574.06.213.106.372.142.475l.204.554c.1.267.16.43.18.49.23.654.506 1.238.824 1.75.525.855 1.24 1.737 2.144 2.648.905.91 1.78 1.63 2.63 2.156.51.32 1.09.596 1.74.83.06.02.222.08.487.18.268.1.45.168.554.205.103.037.26.085.472.145.213.06.403.102.572.125.17.024.343.035.522.035.61 0 1.226-.17 1.85-.51.668-.373 1.072-.727 1.212-1.06.073-.167.142-.396.21-.686.065-.29.098-.525.098-.705 0-.095-.01-.165-.03-.212z" fill="#fff" fill-rule="evenodd"/></svg>