<svg width="16" height="16" viewBox="0 0 16 16" xmlns="http://www.w3.org/2000/svg"><title>icon_sms</title><path d="M3.43 12.746C1.357 11.482 0 9.38 0 7c0-3.866 3.582-7 8-7s8 3.134 8 7-3.582 7-8 7c-.06 0-.122 0-.183-.002-.112.073-.233.15-.36.226-1.27.77-3.244 1.694-5.218 1.527.745-.622 1.062-1.88 1.19-3.004zM4 8c.552 0 1-.448 1-1s-.448-1-1-1-1 .448-1 1 .448 1 1 1zm4 0c.552 0 1-.448 1-1s-.448-1-1-1-1 .448-1 1 .448 1 1 1zm4 0c.552 0 1-.448 1-1s-.448-1-1-1-1 .448-1 1 .448 1 1 1z" fill="#FFF" fill-rule="evenodd"/></svg>