<?xml version="1.0" encoding="UTF-8"?>
<svg width="91px" height="36px" viewBox="0 0 91 36" version="1.1" xmlns="http://www.w3.org/2000/svg" xmlns:xlink="http://www.w3.org/1999/xlink">
    <!-- Generator: Sketch 42 (36781) - http://www.bohemiancoding.com/sketch -->
    <title>Tele2</title>
    <desc>Created with Sketch.</desc>
    <defs></defs>
    <g id="Page-1" stroke="none" stroke-width="1" fill="none" fill-rule="evenodd">
        <g id="tele2_mini_02" transform="translate(-37.000000, -19.000000)" fill="#FFFFFF">
            <g id="header">
                <path d="M44.1111111,36.8617451 L44.1111111,54.4207353 L41.7222222,54.4207353 L41.7222222,37.1477221 L44.1111111,36.8617451 Z M44.1111111,30.7990318 L44.1111111,36.0610093 L37.5,36.8617451 L37.5,31.7713538 L44.1111111,30.7990318 Z M57.6111111,28.9115834 L52.5,29.5979283 L52.5,54.4207353 L57.6111111,54.4207353 L57.6111111,28.9115834 Z M63.3888889,38.2916302 L58.5555556,38.6919981 L58.5555556,44.5259297 L63.3888889,44.2399527 L63.3888889,38.2916302 Z M74.7777778,54.4207353 L83.1111111,54.4207353 L83.1111111,47.9576542 L74.7777778,48.1864358 L74.7777778,54.4207353 Z M73.6666667,26.5665716 L67.8888889,27.4245028 L67.8888889,54.4207353 L73.6666667,54.4207353 L73.6666667,26.5665716 Z M58.5555556,54.4207353 L65.9444444,54.4207353 L65.9444444,48.4724128 L58.5555556,48.7011945 L58.5555556,54.4207353 Z M58.5555556,34.4595379 L65.9444444,33.6016068 L65.9444444,27.7104798 L58.5555556,28.7399971 L58.5555556,34.4595379 Z M102.555556,22.3913069 L92.8333333,23.7639967 L92.8333333,30.5702502 L102.555556,29.4835374 L102.555556,22.3913069 Z M91.5555556,23.9355829 L84.8888889,24.9079048 L84.8888889,54.4207353 L91.5555556,54.4207353 L91.5555556,23.9355829 Z M99.2222222,35.0886874 L92.8333333,35.6606415 L92.8333333,42.5812858 L99.2222222,42.2381134 L99.2222222,35.0886874 Z M44.1111111,36.0610093 L44.1111111,30.7990318 L50.7222222,29.8839053 L50.7222222,35.317469 L44.1111111,36.0610093 Z M44.1111111,54.4207353 L44.1111111,36.8617451 L46.5555556,36.6329634 L46.5555556,54.4207353 L44.1111111,54.4207353 Z M110.333333,47.0997231 L110.333333,54.4207353 L104.722222,54.4207353 L104.722222,47.2713093 L110.333333,47.0997231 Z M110.333333,41.9521363 L110.333333,45.8414241 L106.111111,46.0130103 C106.111111,46.0130103 108,44.2399527 110.333333,41.9521363 L110.333333,41.9521363 Z M110.333333,21.4761803 L110.333333,33.9447793 L105,34.4023425 C104.722222,28.2252385 106.555556,23.8211921 110.333333,21.4761803 L110.333333,21.4761803 Z M102.555556,47.3285047 L92.8333333,47.6144817 L92.8333333,54.4207353 L102.555556,54.4207353 L102.555556,47.3285047 Z M110.333333,33.9447793 L112.055556,33.773193 C111.722222,29.1975604 113.111111,28.0536522 114.5,27.4816982 L114.5,19.8175135 C112.888889,20.160686 111.5,20.73264 110.333333,21.4761803 L110.333333,33.9447793 Z M110.333333,45.8414241 L110.333333,41.9521363 C112.666667,39.66432 115.388889,36.9189405 116.833333,35.1458828 C118.777778,32.8008711 119.555556,30.3414686 118.777778,28.6828017 C118.277778,27.596089 117.166667,27.0813303 115.833333,27.1385257 L115.833333,19.6459273 C119.166667,19.1311686 122.277778,19.9890997 124.388889,22.0481344 C126.333333,23.9355829 127.333333,26.5665716 127.055556,29.3119512 C126.611111,34.5739287 124.166667,38.7491935 117.333333,45.6126424 L110.333333,45.8414241 Z M110.333333,54.4207353 L110.333333,47.0997231 L127.5,46.527769 L127.444444,54.4207353 L110.333333,54.4207353 Z" id="Tele2"></path>
            </g>
        </g>
    </g>
</svg>