<svg width="14" height="16" viewBox="0 0 14 16" xmlns="http://www.w3.org/2000/svg"><title>vk</title><desc>Created with Sketch.</desc><path d="M.75.76h7.815c1.302 0 2.302.358 2.997 1.068.698.71 1.048 1.59 1.048 2.636 0 .88-.25 1.635-.746 2.265-.333.417-.818.75-1.456.992.97.256 1.683.7 2.14 1.323.457.626.688 1.412.688 2.36 0 .77-.164 1.463-.488 2.08-.327.617-.77 1.1-1.337 1.462-.347.222-.875.385-1.583.484-.94.137-1.563.206-1.87.206H.75V.76zm4.21 5.837h1.816c.65 0 1.103-.125 1.36-.37.256-.25.382-.607.382-1.07 0-.434-.127-.774-.38-1.016-.26-.244-.702-.365-1.334-.365H4.96v2.823zm0 5.843h2.13c.72 0 1.227-.138 1.52-.42.294-.28.442-.657.442-1.13 0-.44-.144-.794-.437-1.06-.293-.268-.802-.403-1.535-.403H4.96v3.013z" fill="#fff" fill-rule="evenodd"/></svg>