<?xml version="1.0" encoding="UTF-8"?>
<svg width="143px" height="39px" viewBox="0 0 143 39" version="1.1" xmlns="http://www.w3.org/2000/svg" xmlns:xlink="http://www.w3.org/1999/xlink">
    <!-- Generator: Sketch 42 (36781) - http://www.bohemiancoding.com/sketch -->
    <title>zvooq</title>
    <desc>Created with Sketch.</desc>
    <defs></defs>
    <g id="Page-1" stroke="none" stroke-width="1" fill="none" fill-rule="evenodd">
        <g id="tele2_mini_02" transform="translate(-30.000000, -97.000000)">
            <g id="header">
                <g id="zvooq" transform="translate(30.000000, 97.500000)">
                    <path d="M90.796943,23.518016 C88.4347177,23.518016 86.5192968,21.4703259 86.5192968,18.9455354 C86.5192968,16.4203445 88.4347177,14.3714538 90.796943,14.3714538 C93.1576421,14.3714538 95.0722999,16.4203445 95.0722999,18.9455354 C95.0722999,21.4703259 93.1576421,23.518016 90.796943,23.518016 L90.796943,23.518016 Z M90.796943,9.00967594 C85.664607,9.00967594 81.507533,13.4572779 81.507533,18.9455354 C81.507533,24.4313914 85.664607,28.8793935 90.796943,28.8793935 C95.9266082,28.8793935 100.084827,24.4313914 100.084827,18.9455354 C100.084827,13.4572779 95.9266082,9.00967594 90.796943,9.00967594 L90.796943,9.00967594 Z M110.979833,23.518016 C108.618752,23.518016 106.702186,21.4703259 106.702186,18.9455354 C106.702186,16.4203445 108.618752,14.3714538 110.979833,14.3714538 C113.341676,14.3714538 115.257097,16.4203445 115.257097,18.9455354 C115.257097,21.4703259 113.341676,23.518016 110.979833,23.518016 L110.979833,23.518016 Z M110.979833,9.00967594 C105.850549,9.00967594 101.691186,13.4572779 101.691186,18.9455354 C101.691186,24.4313914 105.850549,28.8793935 110.979833,28.8793935 C116.110261,28.8793935 120.270387,24.4313914 120.270387,18.9455354 C120.270387,13.4572779 116.110261,9.00967594 110.979833,9.00967594 L110.979833,9.00967594 Z M131.184471,23.4603796 C128.822627,23.4603796 126.906825,21.4146909 126.906825,18.8874988 C126.906825,16.362308 128.822627,14.313017 131.184471,14.313017 C133.544789,14.313017 135.461736,16.362308 135.461736,18.8874988 C135.461736,21.4146909 133.544789,23.4603796 131.184471,23.4603796 L131.184471,23.4603796 Z M136.970416,9.62326249 L136.633882,11.2482862 C135.255313,9.8666158 133.431084,8.95203963 131.184471,8.95203963 C126.051754,8.95203963 121.895061,13.4004421 121.895061,18.8874988 C121.895061,24.3729545 125.893025,28.8217572 131.023072,28.8217572 C131.750703,28.8217572 132.440942,28.6508495 133.100655,28.3722741 L131.424471,35.8145626 L137.001322,35.8145626 L142.369843,9.62326249 L136.970416,9.62326249 Z M59.505375,28.1861568 L60.5691586,23.0529229 L53.1200026,23.0529229 L61.6520201,13.9655981 L62.5311296,9.70171191 L48.1628017,9.70171191 L47.1058861,14.8673662 L54.4424825,14.8673662 L45.4338992,23.8646343 L44.5479216,28.1861568 L59.505375,28.1861568 Z M77.2482016,9.70171191 L70.8700788,22.3812998 L69.2896657,9.70171191 L63.7101437,9.70171191 L66.9835294,28.1861568 L73.3105235,28.1861568 L83.0932879,9.70171191 L77.2482016,9.70171191 Z" id="Fill-1" fill="#000000"></path>
                    <path d="M35.0643368,25.965838 C35.0643368,22.9507386 32.9161655,20.5067989 30.2662455,20.5067989 C28.3985193,20.5067989 26.7849107,21.7231652 25.9920332,23.4950815 C25.990507,23.499084 25.9889808,23.5026863 25.987073,23.5062886 C25.1961033,21.7279683 23.5794423,20.5067989 21.7079005,20.5067989 C19.0579805,20.5067989 16.9101908,22.9507386 16.9101908,25.965838 C16.9101908,25.9834491 16.9120985,25.9998595 16.9124801,26.0174706 C16.8888235,26.6114448 16.9063752,32.3670707 25.9866914,38.3976699 L25.987073,38.4012721 C25.9878361,38.4004716 25.9889808,38.4000714 25.9897439,38.3992709 C25.990507,38.4000714 25.9916517,38.4004716 25.9920332,38.4012721 L25.9931779,38.3976699 C35.5824925,32.0292579 35.0643368,25.965838 35.0643368,25.965838" id="Fill-5" fill="#F9218E"></path>
                    <path d="M13.3062232,0.0156098339 L11.6430121,1.17874259 L11.6430121,26.8104902 C9.7054608,25.1538465 6.46679687,25.1554475 3.70927752,27.0178208 C0.414906122,29.2428225 -0.937335275,33.2713604 0.688483176,36.0158894 C2.31430163,38.7604184 6.30272695,39.1818839 9.59709834,36.9568822 C11.9818356,35.3462675 13.347813,32.7906576 13.3039339,30.4607898 L13.3062232,30.4607898 L13.3062232,0.0156098339 Z" id="Fill-3" fill="#000000"></path>
                    <polygon id="Fill-8" fill="#00ED92" points="18.2960474 0 18.2960474 9.59604535 18.2960474 19.1924909 33.5427218 9.59604535"></polygon>
                </g>
            </g>
        </g>
    </g>
</svg>